REM DIRINDEX 1\2,1\3,1\4,1\5
REM DIRNAME folder01,folder02,folder03,folder04,folder05
TITLE ""
FILE "Round-07-152-153.mp3" MP3
  TRACK 01 AUDIO
    TITLE "0:"
    INDEX 01 00:00:00
  TRACK 02 AUDIO
    TITLE "2:cjc093_1717"
    INDEX 01 00:00:01
  TRACK 03 AUDIO
    TITLE "0:"
    INDEX 01 00:01:11
  TRACK 04 AUDIO
    TITLE "3:cjc093_1718"
    INDEX 01 00:01:38
  TRACK 05 AUDIO
    TITLE "0:"
    INDEX 01 00:02:65
  TRACK 06 AUDIO
    TITLE "4:cjc093_1719"
    INDEX 01 00:03:00
  TRACK 07 AUDIO
    TITLE "0:"
    INDEX 01 00:06:00
  TRACK 08 AUDIO
    TITLE "3:cjc093_1720"
    INDEX 01 00:07:11
  TRACK 09 AUDIO
    TITLE "0:"
    INDEX 01 00:08:03
  TRACK 10 AUDIO
    TITLE "4:cjc093_1721"
    INDEX 01 00:08:58
  TRACK 11 AUDIO
    TITLE "0:"
    INDEX 01 00:11:50
  TRACK 12 AUDIO
    TITLE "2:cjc093_1722"
    INDEX 01 00:12:61
  TRACK 13 AUDIO
    TITLE "0:"
    INDEX 01 00:14:04
  TRACK 14 AUDIO
    TITLE "3:cjc093_1723"
    INDEX 01 00:14:39
  TRACK 15 AUDIO
    TITLE "0:"
    INDEX 01 00:15:52
  TRACK 16 AUDIO
    TITLE "4:cjc093_1724"
    INDEX 01 00:15:68
  TRACK 17 AUDIO
    TITLE "0:"
    INDEX 01 00:19:24
  TRACK 18 AUDIO
    TITLE "2:cjc093_1725"
    INDEX 01 00:20:37
  TRACK 19 AUDIO
    TITLE "0:"
    INDEX 01 00:21:45
  TRACK 20 AUDIO
    TITLE "3:cjc093_1726"
    INDEX 01 00:22:21
  TRACK 21 AUDIO
    TITLE "0:"
    INDEX 01 00:24:53
  TRACK 22 AUDIO
    TITLE "4:cjc093_1727"
    INDEX 01 00:25:05
  TRACK 23 AUDIO
    TITLE "0:"
    INDEX 01 00:28:74
  TRACK 24 AUDIO
    TITLE "3:cjc093_1728"
    INDEX 01 00:30:12
  TRACK 25 AUDIO
    TITLE "0:"
    INDEX 01 00:31:55
  TRACK 26 AUDIO
    TITLE "4:cjc093_1729"
    INDEX 01 00:32:21
  TRACK 27 AUDIO
    TITLE "0:"
    INDEX 01 00:34:73
  TRACK 28 AUDIO
    TITLE "2:cjc093_1730"
    INDEX 01 00:36:07
  TRACK 29 AUDIO
    TITLE "0:"
    INDEX 01 00:37:14
  TRACK 30 AUDIO
    TITLE "3:cjc093_1731"
    INDEX 01 00:37:44
  TRACK 31 AUDIO
    TITLE "0:"
    INDEX 01 00:39:52
  TRACK 32 AUDIO
    TITLE "4:cjc093_1732"
    INDEX 01 00:40:19
  TRACK 33 AUDIO
    TITLE "0:"
    INDEX 01 00:44:18
  TRACK 34 AUDIO
    TITLE "2:cjc093_1733"
    INDEX 01 00:45:20
  TRACK 35 AUDIO
    TITLE "0:"
    INDEX 01 00:46:31
  TRACK 36 AUDIO
    TITLE "3:cjc093_1734"
    INDEX 01 00:46:68
  TRACK 37 AUDIO
    TITLE "0:"
    INDEX 01 00:48:71
  TRACK 38 AUDIO
    TITLE "4:cjc093_1735"
    INDEX 01 00:49:37
  TRACK 39 AUDIO
    TITLE "0:"
    INDEX 01 00:52:59
  TRACK 40 AUDIO
    TITLE "3:cjc093_1736"
    INDEX 01 00:53:70
  TRACK 41 AUDIO
    TITLE "0:"
    INDEX 01 00:55:40
  TRACK 42 AUDIO
    TITLE "4:cjc093_1737"
    INDEX 01 00:56:12
  TRACK 43 AUDIO
    TITLE "0:"
    INDEX 01 00:59:57
  TRACK 44 AUDIO
    TITLE "2:cjc093_1738"
    INDEX 01 01:00:66
  TRACK 45 AUDIO
    TITLE "0:"
    INDEX 01 01:01:66
  TRACK 46 AUDIO
    TITLE "3:cjc093_1739"
    INDEX 01 01:02:20
  TRACK 47 AUDIO
    TITLE "0:"
    INDEX 01 01:04:27
  TRACK 48 AUDIO
    TITLE "4:cjc093_1740"
    INDEX 01 01:04:62
  TRACK 49 AUDIO
    TITLE "0:"
    INDEX 01 01:07:74
  TRACK 50 AUDIO
    TITLE "2:cjc093_1741"
    INDEX 01 01:09:10
  TRACK 51 AUDIO
    TITLE "0:"
    INDEX 01 01:10:24
  TRACK 52 AUDIO
    TITLE "3:cjc093_1742"
    INDEX 01 01:10:63
  TRACK 53 AUDIO
    TITLE "0:"
    INDEX 01 01:13:18
  TRACK 54 AUDIO
    TITLE "4:cjc093_1743"
    INDEX 01 01:13:34
  TRACK 55 AUDIO
    TITLE "0:"
    INDEX 01 01:17:10
  TRACK 56 AUDIO
    TITLE "3:cjc093_1744"
    INDEX 01 01:18:25
  TRACK 57 AUDIO
    TITLE "0:"
    INDEX 01 01:19:32
  TRACK 58 AUDIO
    TITLE "4:cjc093_1745"
    INDEX 01 01:20:04
  TRACK 59 AUDIO
    TITLE "0:"
    INDEX 01 01:24:14
